<svg width="76" height="76" viewBox="0 0 76 76" fill="none" xmlns="http://www.w3.org/2000/svg">
<rect width="76" height="76" rx="10" fill="#2E4C66"/>
<path d="M27.46 35.8896C22.1069 35.1624 19.0127 35.9745 17.8203 36.4139L15.3044 30.3978L14.8572 29.3287C14.7878 29.1642 14.8983 28.9766 15.0756 28.9586C20.3748 28.3958 23.749 29.1874 25.034 29.5883L24.5251 28.2699C22.6414 27.7996 19.059 27.2599 13.8344 27.9744L13.4515 28.0258C13.2767 28.0489 13.1714 28.2339 13.2407 28.3958L14.1376 30.5366L14.5899 31.6133L16.9979 37.3725L17.2395 37.9378L17.7843 37.6526C17.8152 37.6346 20.3285 36.3574 25.8152 36.8379C25.9309 36.8508 26.0491 36.8611 26.1699 36.8765H26.1904C26.7404 36.933 27.316 37.0024 27.9225 37.0949L27.46 35.8871V35.8896Z" fill="#F4F4F4"/>
<path d="M27.9225 37.0949L27.46 35.887C22.1069 35.1597 19.0127 35.9718 17.8203 36.4113L15.3044 30.3951L14.8855 30.4388C14.6285 30.4671 14.3818 30.4979 14.1402 30.5313C12.3978 30.7755 11.1591 31.179 10.3573 31.7598L10.1055 31.9397C9.98982 32.0219 9.96669 32.1812 10.0489 32.2969L15.9931 40.482L16.5585 41.2427L16.9645 40.3766C16.9825 40.3381 18.6067 37.1334 28.3363 38.1691L27.9225 37.0949ZM16.4582 39.2022L11.6937 32.6464C11.596 32.5127 11.65 32.3226 11.8042 32.2557C12.4955 31.9756 13.4258 31.7598 14.5899 31.6133L16.9979 37.3724L17.2395 37.9378L17.7843 37.6525C17.8151 37.6345 20.3285 36.3573 25.8152 36.8379C25.9309 36.8507 26.0491 36.861 26.1699 36.8738C19.9404 36.5886 17.4142 38.2025 16.4582 39.1996V39.2022Z" fill="#F4F4F4"/>
<path d="M57.191 30.8013L56.9366 31.49C55.4486 35.5427 51.9767 37.3031 49.8231 38.0252L49.3477 39.2588L48.9031 40.4101C51.1081 40.3381 54.7265 39.6648 57.2861 36.4113L62.7034 41.3121L63.0838 40.8958C63.2097 40.7545 63.3382 40.6157 63.4641 40.4795C64.8056 38.989 65.9184 37.6886 65.9286 37.6732C66.1445 37.4187 66.0957 37.0358 65.8207 36.8431L57.191 30.8038H57.1936L57.191 30.8013ZM62.6237 39.7214L57.1062 34.7306L56.7387 35.2575C56.6744 35.3474 56.6102 35.4374 56.546 35.5247C56.4946 35.5941 56.438 35.6609 56.3866 35.7329C56.0885 36.1132 55.775 36.4499 55.446 36.7506C55.3844 36.8097 55.3227 36.8636 55.2636 36.915C54.9886 37.1566 54.7111 37.3725 54.4284 37.5652C54.3358 37.6295 54.2408 37.6886 54.1482 37.7477C54.0866 37.7888 54.0223 37.8274 53.9581 37.8633C53.9092 37.8942 53.8553 37.925 53.8064 37.9533C52.7425 38.5623 51.6426 38.9067 50.648 39.0943C50.5915 39.102 50.535 39.1149 50.4784 39.1226C50.2677 39.1586 50.0698 39.1868 49.8719 39.21C52.0949 38.5341 55.8649 36.7968 57.723 32.5565L64.1451 37.0538C64.4201 37.2466 64.4689 37.6346 64.2479 37.889C63.8136 38.3876 63.2431 39.0352 62.6237 39.7239V39.7214Z" fill="#F4F4F4"/>
<path d="M63.4615 40.4794L62.6263 39.7213L57.1088 34.7305L56.7413 35.2574C56.677 35.3473 56.6128 35.4372 56.5485 35.5246C56.4971 35.594 56.4406 35.6608 56.3892 35.7328C56.0911 36.1131 55.7776 36.4498 55.4486 36.7505C55.3869 36.8096 55.3253 36.8635 55.2662 36.9149C54.9912 37.1565 54.7136 37.3724 54.4309 37.5651C54.3384 37.6294 54.2433 37.6885 54.1508 37.7476C54.0891 37.7887 54.0249 37.8273 53.9607 37.8632C53.9093 37.8941 53.8579 37.9249 53.809 37.9532C52.7425 38.5622 51.6426 38.9066 50.6506 39.0942C50.5941 39.1019 50.5376 39.1148 50.481 39.1225C50.2703 39.1585 50.0724 39.1867 49.8745 39.2099C49.6946 39.233 49.5147 39.2458 49.3477 39.2587L48.9031 40.41C51.1081 40.338 54.7265 39.6647 57.2861 36.4112L62.7034 41.3146L62.8628 41.4585C63.0709 41.6487 63.0838 41.9699 62.891 42.1729C61.3774 43.7431 56.9212 46.9478 47.5565 43.9153L47.1504 44.9716C50.1007 45.9353 52.6038 46.3028 54.7085 46.3028C61.678 46.3028 64.3199 42.2475 64.4664 42.0136L64.4946 41.9699C64.6206 41.7618 64.5846 41.4971 64.4047 41.3352L63.4564 40.4794L63.4615 40.4845V40.4794Z" fill="#F4F4F4"/>
<path d="M56.2555 21.2978L49.8231 38.0252L49.3476 39.2588L48.9031 40.4101L47.5564 43.9154L47.1504 44.9717L43.2364 55.151C43.2364 55.151 42.9563 56.0813 41.656 56.2689C40.353 56.4565 37.7497 56.4565 36.4494 56.2689C35.1464 56.0813 34.8663 55.151 34.8663 55.151L28.3362 38.1717L27.9224 37.0975L27.4599 35.8897L25.0365 29.5883L24.5276 28.2725L21.8446 21.3004C21.4155 20.185 22.4049 20 22.4049 20H29.2871C31.3327 20 31.6128 21.3004 31.6128 21.3004L38.8933 42.5919C38.9447 42.7436 39.1657 42.7436 39.2146 42.5919L46.4899 21.3029C46.4899 21.3029 46.77 20.0026 48.8182 20.0026H55.6979C55.6979 20.0026 56.6873 20.1902 56.2581 21.3029H56.2555V21.2978Z" fill="#F4F4F4"/>
</svg>
